<?xml version="1.0" encoding="utf-8"?><svg version="1.1" id="Layer_1" xmlns="http://www.w3.org/2000/svg" xmlns:xlink="http://www.w3.org/1999/xlink" x="0px" y="0px" viewBox="0 0 122.88 103.56" style="enable-background:new 0 0 122.88 103.56" xml:space="preserve"><g><path d="M59.49,1.72c1.03-1.69,3.24-2.23,4.94-1.2c1.69,1.03,2.23,3.24,1.2,4.94L34.75,55.92c6.65,4.72,12.18,10.9,16.11,18.07 c3.69,6.72,5.99,14.31,6.51,22.37h61.91c1.99,0,3.6,1.61,3.6,3.6c0,1.99-1.61,3.6-3.6,3.6H3.59v-0.01c-0.64,0-1.29-0.17-1.87-0.53 c-1.69-1.03-2.23-3.24-1.2-4.94L59.49,1.72L59.49,1.72z M31,62.05L10.01,96.36h40.14c-0.51-6.82-2.47-13.23-5.59-18.91 C41.22,71.36,36.57,66.1,31,62.05L31,62.05z"/></g></svg>